<svg id="Layer_1" data-name="Layer 1" xmlns="http://www.w3.org/2000/svg" width="192" height="64" viewBox="0 0 192 64"><defs><style>.cls-1{fill:#ff6f00;}.cls-2{fill:#231f20;}.cls-3{fill:#e0f2f1;}.cls-4{fill:#d50000;}.cls-5{fill:#ef5350;}.cls-6{fill:#eee;}.cls-7{fill:#bf360c;}.cls-8{fill:none;stroke:#263238;stroke-linecap:round;stroke-linejoin:round;stroke-width:1px;}.cls-9{fill:#257aa5;}.cls-10{fill:#ffcc80;}.cls-11{fill:#ff7043;}.cls-12{fill:#795548;}.cls-13{fill:#e0e0e0;}.cls-14{fill:#43a047;}</style></defs><title>sprite</title><path class="cls-1" d="M32,63.75A31.75,31.75,0,1,1,63.75,32,31.79,31.79,0,0,1,32,63.75Z"/><path class="cls-2" d="M32,.5A31.5,31.5,0,1,1,.5,32,31.54,31.54,0,0,1,32,.5M32,0A32,32,0,1,0,64,32,32,32,0,0,0,32,0Z"/><polygon class="cls-3" points="28.98 38.3 29.15 40.21 30.46 40.21 30.38 38.3 28.98 38.3"/><polygon class="cls-3" points="30.7 38.3 30.77 40.21 31.84 40.21 31.84 38.3 30.7 38.3"/><polygon class="cls-3" points="32.16 38.3 32.16 40.21 33.72 40.21 33.84 38.3 32.16 38.3"/><path class="cls-3" d="M14.95,12.16v28H25.57L25.2,38.3H16.86V14.15c0-.09.23-.08.32-.08h30c.09,0,0,0,0,.08v23.9c0,.09.09.24,0,.24H39.34l-.41,1.91H49.05v-28Z"/><polygon class="cls-3" points="35.89 38.3 35.67 40.21 36.98 40.21 37.29 38.3 35.89 38.3"/><polygon class="cls-3" points="34.16 38.3 34.04 40.21 35.35 40.21 35.57 38.3 34.16 38.3"/><polygon class="cls-3" points="26.93 38.3 25.53 38.3 25.89 40.21 27.2 40.21 26.93 38.3"/><polygon class="cls-3" points="37.3 40.21 38.61 40.21 39.02 38.3 37.62 38.3 37.3 40.21"/><polygon class="cls-3" points="28.66 38.3 27.25 38.3 27.52 40.21 28.83 40.21 28.66 38.3"/><polygon class="cls-4" points="37.83 37.02 37.67 37.98 39.09 37.98 39.29 37.02 37.83 37.02"/><polygon class="cls-4" points="27.08 37.02 27.21 37.98 28.63 37.98 28.55 37.02 27.08 37.02"/><path class="cls-5" d="M18.45,37h-.32V15.43c0-.09.23-.08.32-.08H42.52a.16.16,0,1,1,0,.32h2.55a.16.16,0,0,1,0-.32h.8c.09,0,0,0,0,.08V36.78c0,.09.09.24,0,.24H39.62l-.21,1h7.41V14.39H17.18V38h8L25,37Z"/><polygon class="cls-4" points="28.87 37.02 28.95 37.98 30.37 37.98 30.34 37.02 28.87 37.02"/><polygon class="cls-4" points="34.18 37.98 35.6 37.98 35.71 37.02 34.24 37.02 34.18 37.98"/><polygon class="cls-4" points="32.16 37.02 32.16 37.98 33.86 37.98 33.92 37.02 32.16 37.02"/><polygon class="cls-4" points="30.66 37.02 30.69 37.98 31.84 37.98 31.84 37.02 30.66 37.02"/><polygon class="cls-4" points="25.29 37.02 25.47 37.98 26.89 37.98 26.75 37.02 25.29 37.02"/><polygon class="cls-4" points="35.92 37.98 37.35 37.98 37.5 37.02 36.03 37.02 35.92 37.98"/><path class="cls-4" d="M16.7,38.06v.16h.16A.16.16,0,0,1,16.7,38.06Z"/><path class="cls-4" d="M18,36.78v.16h.16A.16.16,0,0,1,18,36.78Z"/><polygon class="cls-6" points="36.29 34.79 36.07 36.7 37.56 36.7 37.87 34.79 36.29 34.79"/><polygon class="cls-6" points="38.19 34.79 37.88 36.7 39.36 36.7 39.77 34.79 38.19 34.79"/><path class="cls-6" d="M18.45,36.7H24.9l-.36-1.91h-.18a1,1,0,0,1-.19-.06,1.09,1.09,0,0,1,.19-2.17h15.9a1.1,1.1,0,0,1,1.12,1.08,1.15,1.15,0,0,1-.92,1.12,1,1,0,0,1-.19,0h-.46v-.08l-.12,2h5.86v-21H18.45Z"/><polygon class="cls-6" points="24.86 34.79 25.23 36.7 26.71 36.7 26.44 34.79 24.86 34.79"/><polygon class="cls-6" points="31.84 36.7 31.84 34.79 30.57 34.79 30.64 36.7 31.84 36.7"/><path class="cls-6" d="M30.32,36.7l-.07-1.9v0H28.67l.17,1.91Z"/><polygon class="cls-6" points="33.94 36.7 34.06 34.79 32.16 34.79 32.16 36.7 33.94 36.7"/><polygon class="cls-6" points="28.35 34.79 26.77 34.79 27.03 36.7 28.52 36.7 28.35 34.79"/><polygon class="cls-6" points="35.75 36.7 35.97 34.79 34.38 34.79 34.26 36.7 35.75 36.7"/><path class="cls-4" d="M40.14,34.69l-.19,0Z"/><path class="cls-4" d="M24,34.71l-.19,0Z"/><path class="cls-7" d="M23.57,33.67a.81.81,0,0,0,.8.8h15.9a.8.8,0,1,0,0-1.59H24.36A.81.81,0,0,0,23.57,33.67Z"/><rect class="cls-8" x="14.79" y="12" width="34.42" height="28.37"/><polyline class="cls-8" points="44.91 15.51 45.7 15.51 45.7 36.86 18.3 36.86 18.3 15.51 42.36 15.51"/><path class="cls-8" d="M41.22,33.67a1,1,0,0,1-1,1H24.36a1,1,0,0,1,0-1.91h15.9A1,1,0,0,1,41.22,33.67Z"/><line class="cls-8" x1="32.32" y1="34.63" x2="32.32" y2="47.17"/><line class="cls-8" x1="24.75" y1="34.63" x2="27.27" y2="47.17"/><line class="cls-8" x1="26.64" y1="34.63" x2="28.53" y2="47.17"/><line class="cls-8" x1="30.37" y1="34.63" x2="31.06" y2="47.17"/><line class="cls-8" x1="28.53" y1="34.63" x2="29.8" y2="47.17"/><line class="cls-8" x1="39.81" y1="34.71" x2="37.37" y2="47.17"/><line class="cls-8" x1="34.21" y1="34.63" x2="33.58" y2="47.17"/><line class="cls-8" x1="37.99" y1="34.71" x2="36.1" y2="47.17"/><line class="cls-8" x1="36.1" y1="34.63" x2="34.84" y2="47.17"/><line class="cls-8" x1="27.38" y1="47.38" x2="37.26" y2="47.38"/><line class="cls-8" x1="27.38" y1="49.93" x2="37.26" y2="49.93"/><line class="cls-8" x1="27.27" y1="47.31" x2="27.25" y2="51.45"/><path class="cls-8" d="M37.42,52"/><path class="cls-8" d="M37.42,47.22"/><line class="cls-8" x1="28.49" y1="47.22" x2="28.51" y2="51.45"/><path class="cls-8" d="M36.14,52"/><path class="cls-8" d="M36.14,47.22"/><path class="cls-8" d="M29.77,51.36"/><path class="cls-8" d="M29.77,46.9"/><path class="cls-8" d="M34.87,52"/><path class="cls-8" d="M34.87,47.22"/><path class="cls-8" d="M31,51.36"/><path class="cls-8" d="M31,47.22"/><path class="cls-8" d="M33.59,47.22"/><path class="cls-8" d="M32.32,52"/><path class="cls-8" d="M32.32,47.22"/><rect class="cls-8" x="17.02" y="14.23" width="29.96" height="23.9"/><line class="cls-8" x1="29.77" y1="47.22" x2="29.78" y2="51.45"/><line class="cls-8" x1="31.04" y1="47.22" x2="31.06" y2="51.45"/><line class="cls-8" x1="32.32" y1="47.22" x2="32.33" y2="51.45"/><line class="cls-8" x1="33.59" y1="47.22" x2="33.61" y2="51.45"/><line class="cls-8" x1="34.86" y1="47.23" x2="34.87" y2="51.46"/><line class="cls-8" x1="36.14" y1="47.22" x2="36.16" y2="51.45"/><line class="cls-8" x1="37.37" y1="47.23" x2="37.43" y2="51.45"/><path class="cls-9" d="M96,63.75A31.75,31.75,0,1,1,127.75,32,31.79,31.79,0,0,1,96,63.75Z"/><path class="cls-2" d="M96,.5A31.5,31.5,0,1,1,64.5,32,31.54,31.54,0,0,1,96,.5M96,0a32,32,0,1,0,32,32A32,32,0,0,0,96,0Z"/><path class="cls-10" d="M100.75,34.87a25,25,0,0,1-2.46-3.27l-.58-.86-1.18-1.69A34.52,34.52,0,0,0,93.3,25.2L80.95,12.85a2.39,2.39,0,0,0-3.37,0l-.89.89a2.39,2.39,0,0,0,0,3.37l7.45,7.45a3.63,3.63,0,0,1,3.58,3.58L89,29.46a34.51,34.51,0,0,0,3.86,3.23l1.69,1.18.86.59a25,25,0,0,1,3.27,2.46l5.23,5.23,0,0L105,41l.91-.91h0Z"/><path class="cls-11" d="M113.66,47.46l-7.15-7.15v0l-.88.88-1.1,1.1,0,0,8.29,8.29,2-2Z"/><path class="cls-12" d="M112.59,50.74l-.23.13a.42.42,0,0,0,0,.63l.21.21a.49.49,0,0,0,.67,0l2.65-2.65a.48.48,0,0,0,0-.68l-.22-.22a.48.48,0,0,0-.67,0l-2.46,2.46v.12h.08Z"/><polygon class="cls-4" points="112.2 50.62 112.2 50.62 112.2 50.62 112.2 50.62"/><path class="cls-13" d="M82.91,26a3.73,3.73,0,0,1,.06-.67c0-.06,0-.12,0-.19a3.32,3.32,0,0,0-1.88,2.41,3.41,3.41,0,0,0-.06.61,3.32,3.32,0,0,0,6.35,1.37A3.64,3.64,0,0,1,82.91,26Z"/><path class="cls-4" d="M84.1,24.87h0Z"/><path class="cls-4" d="M87.41,28.22v0h0A.16.16,0,0,0,87.41,28.22Z"/><path class="cls-6" d="M87.57,27.18a3.33,3.33,0,0,0-3-2.3h-.23a3.31,3.31,0,0,0-1,.16h0a3.41,3.41,0,0,0-.1.38,3.36,3.36,0,0,0-.06.61,3.32,3.32,0,0,0,4.34,3.16h0a3.3,3.3,0,0,0,.15-1,.17.17,0,0,1,0,0A3.31,3.31,0,0,0,87.57,27.18Z"/><path class="cls-8" d="M87.73,28.2a3.48,3.48,0,1,1-7,0,3.53,3.53,0,0,1,.06-.64,3.48,3.48,0,0,1,6.91.64Z"/><path class="cls-8" d="M87.54,29.32a3.49,3.49,0,0,1-4.44-4.42"/><path class="cls-8" d="M84.24,24.72l-7.5-7.5a2.55,2.55,0,0,1,0-3.59l.89-.89a2.55,2.55,0,0,1,3.59,0L93.57,25.09A34.82,34.82,0,0,1,96.82,29L98,30.66a35.35,35.35,0,0,0,3,4.1l13.48,13.48"/><path class="cls-8" d="M112.24,50.51,98.76,37c-2.65-2.65-1.62-1.29-4.1-3L93,32.82a34.82,34.82,0,0,1-3.88-3.25L87.73,28.2"/><path class="cls-8" d="M114.27,48.48l.43-.43a.64.64,0,0,1,.9,0l.22.22a.64.64,0,0,1,0,.9l-2.65,2.65a.64.64,0,0,1-.9,0L112,51.6a.64.64,0,0,1,0-.9l1.27-1.27"/><line class="cls-8" x1="104.24" y1="42.21" x2="106.23" y2="40.22"/><path class="cls-14" d="M160,63.75A31.75,31.75,0,1,1,191.75,32,31.79,31.79,0,0,1,160,63.75Z"/><path class="cls-2" d="M160,.5A31.5,31.5,0,1,1,128.5,32,31.54,31.54,0,0,1,160,.5m0-.5a32,32,0,1,0,32,32A32,32,0,0,0,160,0Z"/><path class="cls-6" d="M164.1,49.65,168,44l-3.35-5.4h-9.8l-3.7,5.4L155,49.7v0l9-.1S164.1,49.7,164.1,49.65Z"/><path class="cls-6" d="M164.2,50H155s0,0-.1,0l-1,.9a19.76,19.76,0,0,0,11.3,0l-1-1A0,0,0,0,1,164.2,50Z"/><path class="cls-6" d="M151.9,28.9l7.45-5.5V17.2L152.65,15l-6.9,5.15v7.3l6.15,1.5Z"/><path class="cls-6" d="M151.75,29.2h0l-6-1.5-4.1,5.4,2.4,8.5,6.9,2.25,3.75-5.55Z"/><path class="cls-6" d="M159.8,23.25l7.7,5.65h0l6.2-1.5V20.1l-7.45-5-6.5,2.2h-.1v5.9A.15.15,0,0,0,159.8,23.25Z"/><path class="cls-6" d="M174,19.85l1.3,0a19.65,19.65,0,0,0-9-6.45l.25,1.5Z"/><path class="cls-6" d="M141.3,33.2l-1.3-.7a19.49,19.49,0,0,0,3.25,10.35l.45-1.15Z"/><path class="cls-6" d="M152.5,14.7l.35-1.2a20.1,20.1,0,0,0-8.6,6.3l1.3,0Z"/><path class="cls-6" d="M167.8,29.2l-3,9.1,3.4,5.5,6.9-2.25,2.8-8.5-4-5.4-6.1,1.55Z"/><path class="cls-6" d="M175.45,41.7l.55,1.45v0a20.06,20.06,0,0,0,3.5-10.7l-1.25.65Z"/><path class="cls-6" d="M179.5,31.75a7.38,7.38,0,0,0,0-1l-.25.15-.65.35h0a.18.18,0,0,1-.15,0l-3-4s0,0,0-.1l.15-5.35a.13.13,0,0,1,.15-.15h.85c-.25-.4-.55-.8-.8-1.2,0,0-.1-.15-.15-.2l-1.4.1v7.3l4,5.4,1.35-.75V32C179.55,31.9,179.5,31.85,179.5,31.75Z"/><path class="cls-6" d="M164.55,38.15h0l2.9-9-7.7-5.6-7.65,5.6,2.9,9h0s.1.15,0,.15h9.4S164.5,38.2,164.55,38.15Zm-1.1-1.1H156s-.15,0-.15-.1l-2.3-7.15a.3.3,0,0,1,0-.2l5.95-4.35h0a.22.22,0,0,1,.25,0l.8.55,5.2,3.9s.1.1,0,.15L163.6,37S163.55,37,163.45,37Z"/><path class="cls-6" d="M145.45,20.2,144,20.1h0s-.05,0-.05.1c-.3.4-.6.85-.9,1.3H144a.13.13,0,0,1,.15.15L144.2,27s0,0,0,.1l-2.95,4a.18.18,0,0,1-.15,0H141l-.7-.35-.3-.15v1.5l1.4.75,4.05-5.4Z"/><path class="cls-6" d="M175.75,43.3h0l-.55-1.4-6.9,2.25-3.85,5.55,1.2,1.1h0l1.65-.6-.4-.35-.5-.45a.15.15,0,0,1,0-.2l2.8-4s0,0,.1,0l5-1.65c.1,0,.15,0,.2.1l.2.5.2.55h0a11.74,11.74,0,0,0,1-1.25A.18.18,0,0,1,175.75,43.3Z"/><path class="cls-4" d="M165.6,50.9Z"/><path class="cls-6" d="M150.9,44.2,144,42l-.5,1.25c.1.1.15.25.25.35.2.3.4.55.6.8l.1-.25.2-.55c0-.1.1-.1.2-.1l5,1.65s0,0,.1,0l2.8,4a.15.15,0,0,1,0,.2l-.55.5-.25.25a9.2,9.2,0,0,0,1.25.45l.4.15,1.1-1Z"/><path d="M149.75,45.4l-4.9-1.6-.2.5-.15.35a3.23,3.23,0,0,0,.4.45A19.45,19.45,0,0,0,151.4,50a.84.84,0,0,0,.25.1l.3-.3.45-.45Z"/><path d="M174.7,44.75h0l-.2-.5-.2-.45-4.9,1.6-2.7,3.9.45.4.35.35h0a0,0,0,0,0,0,0,19.56,19.56,0,0,0,7.2-5.35S174.75,44.75,174.7,44.75Z"/><path d="M179.4,29.75a19.52,19.52,0,0,0-2.35-7.35c-.1-.2-.25-.4-.35-.6h-.9l-.1,5.15,2.8,3.85.55-.3.35-.2A2,2,0,0,0,179.4,29.75Z"/><path class="cls-4" d="M140.1,30.2l-.05.1h0C140.1,30.25,140.1,30.25,140.1,30.2Z"/><path d="M143.8,21.85h-1a.38.38,0,0,0-.1.2,19.83,19.83,0,0,0-2.65,8.2v.1h0l.4.2.6.3,2.8-3.85Z"/><path class="cls-6" d="M165.9,13.25h0c0-.05-.05-.05,0,0-.45-.15-.9-.3-1.3-.4l0,.35.1.65a.26.26,0,0,1-.1.2l-4.9,1.65h-.1l-5.3-1.75c-.1-.05-.1-.1-.1-.2l.15-.5.1-.3-1,.3c-.1.05-.2.05-.3.1l-.35,1.35,6.85,2.3,6.4-2.15Z"/><path class="cls-4" d="M165.9,13.2Z"/><polygon points="160.05 25.25 153.95 29.8 156.15 36.75 163.35 36.75 165.85 29.55 160.05 25.25"/><path d="M164.35,13.2l0-.4v-.05h0a19.1,19.1,0,0,0-4.5-.5,20.84,20.84,0,0,0-4.7.55,2.17,2.17,0,0,0-.25.05l-.1.4-.1.45,5.1,1.7,4.75-1.6Z"/><circle class="cls-8" cx="160.1" cy="32" r="19.9"/><polygon class="cls-8" points="155.2 38.5 152.2 29.15 160.1 23.4 167.95 29.15 164.95 38.5 155.2 38.5"/><polyline class="cls-8" points="154 50.95 155.25 49.75 151.3 44.05 144.2 41.7 143.6 43.2"/><polyline class="cls-8" points="152.1 50.2 153 49.3 150.2 45.25 145.1 43.6 144.7 44.65"/><polyline class="cls-8" points="167.75 50.2 166.85 49.3 169.65 45.25 174.75 43.6 175.15 44.65"/><polyline class="cls-8" points="179.95 30.45 178.8 31 175.9 27 175.95 21.7 177.1 21.65"/><polyline class="cls-8" points="140.3 30.45 141.45 31 144.35 27 144.3 21.7 143.15 21.65"/><polyline class="cls-8" points="140.2 32.25 141.75 33.1 145.95 27.5 145.9 20.05 144.35 19.95"/><polyline class="cls-8" points="180 32.25 178.45 33.1 174.25 27.5 174.3 20.05 175.85 19.95"/><polyline class="cls-8" points="166.35 13.2 166.65 14.95 160.1 17.15 152.95 14.8 153.4 13.25"/><polyline class="cls-8" points="165.8 50.95 164.55 49.75 168.5 44.05 175.6 41.7 176.2 43.2"/><line class="cls-8" x1="159.85" y1="23.45" x2="159.85" y2="17.15"/><line class="cls-8" x1="152.2" y1="29.05" x2="145.95" y2="27.5"/><line class="cls-8" x1="141.75" y1="33.1" x2="144.2" y2="41.7"/><line class="cls-8" x1="151.3" y1="44.05" x2="155.2" y2="38.3"/><line class="cls-8" x1="164.95" y1="38.3" x2="168.5" y2="44.05"/><line class="cls-8" x1="164.45" y1="49.9" x2="155.25" y2="49.9"/><line class="cls-8" x1="167.95" y1="29.05" x2="174.25" y2="27.5"/><line class="cls-8" x1="178.45" y1="33.1" x2="175.6" y2="41.7"/><line class="cls-8" x1="174.3" y1="20.05" x2="166.65" y2="14.95"/><line class="cls-8" x1="152.95" y1="14.8" x2="145.9" y2="20.05"/><path class="cls-8" d="M166.1,29.75l-2.3,7.15h-7.45l-2.3-7.15,6-4.4Z"/><polyline class="cls-8" points="164.75 12.8 164.95 13.9 160 15.55 154.7 13.8 155 12.8"/></svg>